<mxfile host="app.diagrams.net" modified="2022-10-23T02:48:37.352Z" agent="5.0 (Windows NT 10.0; Win64; x64) AppleWebKit/537.36 (KHTML, like Gecko) Chrome/106.0.0.0 Safari/537.36 Edg/106.0.1370.52" etag="tdfS7tfnEx_pYixOk1Qf" version="20.5.1" type="github">
  <diagram id="mrw0cMHbIpeQKUJW4JVx" name="第 1 页">
    <mxGraphModel dx="2031" dy="1077" grid="1" gridSize="10" guides="1" tooltips="1" connect="1" arrows="1" fold="1" page="1" pageScale="1" pageWidth="1169" pageHeight="827" math="0" shadow="0">
      <root>
        <mxCell id="0" />
        <mxCell id="1" parent="0" />
        <mxCell id="GfWmEhK6W-lZVDp477oG-3" value="" style="edgeStyle=orthogonalEdgeStyle;rounded=0;orthogonalLoop=1;jettySize=auto;html=1;" edge="1" parent="1" source="GfWmEhK6W-lZVDp477oG-1" target="GfWmEhK6W-lZVDp477oG-2">
          <mxGeometry relative="1" as="geometry" />
        </mxCell>
        <mxCell id="GfWmEhK6W-lZVDp477oG-1" value="App(程序入口)" style="rounded=1;whiteSpace=wrap;html=1;" vertex="1" parent="1">
          <mxGeometry x="205" y="397" width="120" height="60" as="geometry" />
        </mxCell>
        <mxCell id="GfWmEhK6W-lZVDp477oG-16" style="edgeStyle=orthogonalEdgeStyle;rounded=0;orthogonalLoop=1;jettySize=auto;html=1;" edge="1" parent="1" source="GfWmEhK6W-lZVDp477oG-2" target="GfWmEhK6W-lZVDp477oG-4">
          <mxGeometry relative="1" as="geometry" />
        </mxCell>
        <mxCell id="GfWmEhK6W-lZVDp477oG-17" style="edgeStyle=orthogonalEdgeStyle;rounded=0;orthogonalLoop=1;jettySize=auto;html=1;" edge="1" parent="1" source="GfWmEhK6W-lZVDp477oG-2" target="GfWmEhK6W-lZVDp477oG-7">
          <mxGeometry relative="1" as="geometry" />
        </mxCell>
        <mxCell id="GfWmEhK6W-lZVDp477oG-2" value="Root(程序初始化脚本)" style="whiteSpace=wrap;html=1;rounded=1;" vertex="1" parent="1">
          <mxGeometry x="369" y="397" width="156" height="60" as="geometry" />
        </mxCell>
        <mxCell id="GfWmEhK6W-lZVDp477oG-12" style="edgeStyle=orthogonalEdgeStyle;rounded=0;orthogonalLoop=1;jettySize=auto;html=1;entryX=0;entryY=0.5;entryDx=0;entryDy=0;" edge="1" parent="1" target="GfWmEhK6W-lZVDp477oG-11">
          <mxGeometry relative="1" as="geometry">
            <mxPoint x="650" y="321" as="sourcePoint" />
            <mxPoint x="740" y="259" as="targetPoint" />
            <Array as="points">
              <mxPoint x="690" y="321" />
              <mxPoint x="690" y="259" />
            </Array>
          </mxGeometry>
        </mxCell>
        <mxCell id="GfWmEhK6W-lZVDp477oG-14" style="edgeStyle=orthogonalEdgeStyle;rounded=0;orthogonalLoop=1;jettySize=auto;html=1;" edge="1" parent="1" source="GfWmEhK6W-lZVDp477oG-4" target="GfWmEhK6W-lZVDp477oG-13">
          <mxGeometry relative="1" as="geometry" />
        </mxCell>
        <mxCell id="GfWmEhK6W-lZVDp477oG-15" style="edgeStyle=orthogonalEdgeStyle;rounded=0;orthogonalLoop=1;jettySize=auto;html=1;entryX=0;entryY=0.5;entryDx=0;entryDy=0;" edge="1" parent="1" source="GfWmEhK6W-lZVDp477oG-4" target="GfWmEhK6W-lZVDp477oG-9">
          <mxGeometry relative="1" as="geometry" />
        </mxCell>
        <mxCell id="GfWmEhK6W-lZVDp477oG-22" style="edgeStyle=orthogonalEdgeStyle;rounded=0;orthogonalLoop=1;jettySize=auto;html=1;entryX=0;entryY=0.5;entryDx=0;entryDy=0;" edge="1" parent="1" source="GfWmEhK6W-lZVDp477oG-4" target="GfWmEhK6W-lZVDp477oG-20">
          <mxGeometry relative="1" as="geometry" />
        </mxCell>
        <mxCell id="GfWmEhK6W-lZVDp477oG-24" style="edgeStyle=orthogonalEdgeStyle;rounded=0;orthogonalLoop=1;jettySize=auto;html=1;entryX=0;entryY=0.5;entryDx=0;entryDy=0;" edge="1" parent="1" source="GfWmEhK6W-lZVDp477oG-4" target="GfWmEhK6W-lZVDp477oG-23">
          <mxGeometry relative="1" as="geometry" />
        </mxCell>
        <mxCell id="GfWmEhK6W-lZVDp477oG-26" style="edgeStyle=orthogonalEdgeStyle;rounded=0;orthogonalLoop=1;jettySize=auto;html=1;entryX=0;entryY=0.5;entryDx=0;entryDy=0;" edge="1" parent="1" source="GfWmEhK6W-lZVDp477oG-4" target="GfWmEhK6W-lZVDp477oG-25">
          <mxGeometry relative="1" as="geometry" />
        </mxCell>
        <mxCell id="GfWmEhK6W-lZVDp477oG-4" value="***Logic&lt;br&gt;(模块Logic脚本)" style="whiteSpace=wrap;html=1;rounded=1;" vertex="1" parent="1">
          <mxGeometry x="525" y="291" width="120" height="60" as="geometry" />
        </mxCell>
        <mxCell id="GfWmEhK6W-lZVDp477oG-28" value="" style="edgeStyle=orthogonalEdgeStyle;rounded=0;orthogonalLoop=1;jettySize=auto;html=1;entryX=0;entryY=0.5;entryDx=0;entryDy=0;" edge="1" parent="1" source="GfWmEhK6W-lZVDp477oG-7" target="GfWmEhK6W-lZVDp477oG-27">
          <mxGeometry relative="1" as="geometry" />
        </mxCell>
        <mxCell id="GfWmEhK6W-lZVDp477oG-32" style="edgeStyle=orthogonalEdgeStyle;rounded=0;orthogonalLoop=1;jettySize=auto;html=1;entryX=0;entryY=0.5;entryDx=0;entryDy=0;" edge="1" parent="1" source="GfWmEhK6W-lZVDp477oG-7" target="GfWmEhK6W-lZVDp477oG-29">
          <mxGeometry relative="1" as="geometry" />
        </mxCell>
        <mxCell id="GfWmEhK6W-lZVDp477oG-33" style="edgeStyle=orthogonalEdgeStyle;rounded=0;orthogonalLoop=1;jettySize=auto;html=1;entryX=0;entryY=0.5;entryDx=0;entryDy=0;" edge="1" parent="1" source="GfWmEhK6W-lZVDp477oG-7" target="GfWmEhK6W-lZVDp477oG-30">
          <mxGeometry relative="1" as="geometry" />
        </mxCell>
        <mxCell id="GfWmEhK6W-lZVDp477oG-34" style="edgeStyle=orthogonalEdgeStyle;rounded=0;orthogonalLoop=1;jettySize=auto;html=1;entryX=0;entryY=0.5;entryDx=0;entryDy=0;" edge="1" parent="1" source="GfWmEhK6W-lZVDp477oG-7" target="GfWmEhK6W-lZVDp477oG-31">
          <mxGeometry relative="1" as="geometry" />
        </mxCell>
        <mxCell id="GfWmEhK6W-lZVDp477oG-7" value="***View&lt;br&gt;(模块View脚本)" style="rounded=1;whiteSpace=wrap;html=1;" vertex="1" parent="1">
          <mxGeometry x="525" y="519" width="120" height="60" as="geometry" />
        </mxCell>
        <mxCell id="GfWmEhK6W-lZVDp477oG-9" value="构造方法(只执行一次)" style="whiteSpace=wrap;html=1;rounded=0;align=left;" vertex="1" parent="1">
          <mxGeometry x="735" y="204" width="120" height="30" as="geometry" />
        </mxCell>
        <mxCell id="GfWmEhK6W-lZVDp477oG-11" value="Begin（根据配置表在对应场景初始化)" style="whiteSpace=wrap;html=1;rounded=0;align=left;" vertex="1" parent="1">
          <mxGeometry x="735" y="245" width="210" height="30" as="geometry" />
        </mxCell>
        <mxCell id="GfWmEhK6W-lZVDp477oG-13" value="End(根据配置表在对应场景退出之后执行)" style="whiteSpace=wrap;html=1;rounded=0;align=left;" vertex="1" parent="1">
          <mxGeometry x="735" y="286" width="230" height="30" as="geometry" />
        </mxCell>
        <mxCell id="GfWmEhK6W-lZVDp477oG-20" value="AppPause(应用暂停时执行)" style="whiteSpace=wrap;html=1;rounded=0;align=left;" vertex="1" parent="1">
          <mxGeometry x="735" y="326" width="150" height="30" as="geometry" />
        </mxCell>
        <mxCell id="GfWmEhK6W-lZVDp477oG-23" value="AppFocus(应用失去焦点时执行)" style="whiteSpace=wrap;html=1;rounded=0;align=left;" vertex="1" parent="1">
          <mxGeometry x="735" y="367" width="180" height="30" as="geometry" />
        </mxCell>
        <mxCell id="GfWmEhK6W-lZVDp477oG-25" value="AppQuit(应用退出时执行)" style="whiteSpace=wrap;html=1;rounded=0;align=left;" vertex="1" parent="1">
          <mxGeometry x="735" y="408" width="180" height="30" as="geometry" />
        </mxCell>
        <mxCell id="GfWmEhK6W-lZVDp477oG-27" value="InitView(初始化View方法)" style="whiteSpace=wrap;html=1;rounded=0;align=left;" vertex="1" parent="1">
          <mxGeometry x="735" y="474" width="140" height="30" as="geometry" />
        </mxCell>
        <mxCell id="GfWmEhK6W-lZVDp477oG-29" value="RegisterEvent(事件注册方法)" style="whiteSpace=wrap;html=1;rounded=0;align=left;" vertex="1" parent="1">
          <mxGeometry x="735" y="514" width="160" height="30" as="geometry" />
        </mxCell>
        <mxCell id="GfWmEhK6W-lZVDp477oG-30" value="OpenView(打开View方法)" style="whiteSpace=wrap;html=1;rounded=0;align=left;" vertex="1" parent="1">
          <mxGeometry x="735" y="554" width="140" height="30" as="geometry" />
        </mxCell>
        <mxCell id="GfWmEhK6W-lZVDp477oG-31" value="CloseView(关闭View方法)" style="whiteSpace=wrap;html=1;rounded=0;align=left;" vertex="1" parent="1">
          <mxGeometry x="735" y="594" width="150" height="30" as="geometry" />
        </mxCell>
      </root>
    </mxGraphModel>
  </diagram>
</mxfile>
